<?xml version="1.0" encoding="utf-8"?>
<!-- Generator: Adobe Illustrator 17.0.0, SVG Export Plug-In . SVG Version: 6.00 Build 0)  -->
<!DOCTYPE svg PUBLIC "-//W3C//DTD SVG 1.1//EN" "http://www.w3.org/Graphics/SVG/1.1/DTD/svg11.dtd">
<svg version="1.1" id="Layer_1" xmlns="http://www.w3.org/2000/svg" xmlns:xlink="http://www.w3.org/1999/xlink" x="0px" y="0px"
	 width="210px" height="82px" viewBox="0 0 210 82" enable-background="new 0 0 210 82" xml:space="preserve">
<g>
	<g enable-background="new    ">
		<path fill="#A7A9AC" d="M79.92,51.328c-1.803,6.283-3.921,11.373-6.356,15.27c-2.436,3.897-5.65,5.845-9.644,5.845
			c-1.706,0-3.057-0.524-4.055-1.571c-0.999-1.047-1.79-2.422-2.374-4.128c-0.584-1.705-1.109-3.628-1.571-5.772
			c-0.463-2.143-0.938-4.358-1.425-6.648c-0.975,1.364-2.363,3.021-4.164,4.968c-1.803,1.948-4.043,4.067-6.722,6.356
			c-5.406,4.53-12.201,6.795-20.384,6.795c-10.18,0-16.804-3.312-19.872-9.936c-3.117-6.867-3.337-14.928-0.657-24.183
			c1.217-4.53,3.153-9.011,5.808-13.443c2.654-4.432,5.772-8.39,9.351-11.872c3.58-3.482,7.562-6.27,11.945-8.366
			c4.384-2.093,8.937-3.092,13.662-2.995c4.87,0,9.253,1.802,13.151,5.406c3.799,3.361,5.235,10.131,4.311,20.311L76.34,3.401
			h13.151L60.925,46.798c-0.391,1.218-0.511,2.728-0.365,4.53c0.146,1.802,0.523,3.495,1.133,5.078
			c0.608,1.583,1.363,2.948,2.264,4.091c0.9,1.145,1.887,1.717,2.959,1.717c1.412,0,3.007-0.888,4.786-2.667
			c1.777-1.777,3.518-4.517,5.223-8.219L79.92,51.328L79.92,51.328z M53.472,38.323c1.608-7.598,1.608-14.539,0-20.822
			c-1.51-6.38-5.456-9.571-11.836-9.571c-8.767,0-16.56,9.669-23.379,29.005c-1.169,4.384-1.925,8.378-2.265,11.981
			c-0.342,3.605-0.268,6.698,0.219,9.279c0.486,2.582,1.449,4.603,2.886,6.064c1.436,1.462,3.372,2.192,5.808,2.192
			c2.484,0.195,5.272-0.705,8.365-2.703c3.092-1.997,6.028-4.468,8.804-7.415c2.776-2.946,5.211-6.064,7.306-9.351
			C51.475,43.693,52.838,40.807,53.472,38.323z"/>
	</g>
	<g enable-background="new    ">
		<path fill="none" stroke="#A7A9AC" stroke-width="0.216" stroke-miterlimit="5" d="M79.92,51.328
			c-1.803,6.283-3.921,11.373-6.356,15.27c-2.436,3.897-5.65,5.845-9.644,5.845c-1.706,0-3.057-0.524-4.055-1.571
			c-0.999-1.047-1.79-2.422-2.374-4.128c-0.584-1.705-1.109-3.628-1.571-5.772c-0.463-2.143-0.938-4.358-1.425-6.648
			c-0.975,1.364-2.363,3.021-4.164,4.968c-1.803,1.948-4.043,4.067-6.722,6.356c-5.406,4.53-12.201,6.795-20.384,6.795
			c-10.18,0-16.804-3.312-19.872-9.936c-3.117-6.867-3.337-14.928-0.657-24.183c1.217-4.53,3.153-9.011,5.808-13.443
			c2.654-4.432,5.772-8.39,9.351-11.872c3.58-3.482,7.562-6.27,11.945-8.366c4.384-2.093,8.937-3.092,13.662-2.995
			c4.87,0,9.253,1.802,13.151,5.406c3.799,3.361,5.235,10.131,4.311,20.311L76.34,3.401h13.151L60.925,46.798
			c-0.391,1.218-0.511,2.728-0.365,4.53c0.146,1.802,0.523,3.495,1.133,5.078c0.608,1.583,1.363,2.948,2.264,4.091
			c0.9,1.145,1.887,1.717,2.959,1.717c1.412,0,3.007-0.888,4.786-2.667c1.777-1.777,3.518-4.517,5.223-8.219L79.92,51.328
			L79.92,51.328z M53.472,38.323c1.608-7.598,1.608-14.539,0-20.822c-1.51-6.38-5.456-9.571-11.836-9.571
			c-8.767,0-16.56,9.669-23.379,29.005c-1.169,4.384-1.925,8.378-2.265,11.981c-0.342,3.605-0.268,6.698,0.219,9.279
			c0.486,2.582,1.449,4.603,2.886,6.064c1.436,1.462,3.372,2.192,5.808,2.192c2.484,0.195,5.272-0.705,8.365-2.703
			c3.092-1.997,6.028-4.468,8.804-7.415c2.776-2.946,5.211-6.064,7.306-9.351C51.475,43.693,52.838,40.807,53.472,38.323z"/>
	</g>
	<g enable-background="new    ">
		<path fill="#006F3B" d="M81.519,50.968c-1.803,6.283-3.921,11.373-6.356,15.27c-2.436,3.897-5.65,5.845-9.644,5.845
			c-1.706,0-3.057-0.524-4.055-1.571c-0.999-1.047-1.79-2.422-2.374-4.128c-0.584-1.705-1.109-3.628-1.571-5.772
			c-0.463-2.143-0.938-4.358-1.425-6.648c-0.975,1.364-2.363,3.021-4.164,4.968c-1.803,1.948-4.043,4.067-6.722,6.356
			c-5.406,4.53-12.201,6.795-20.384,6.795c-10.18,0-16.804-3.312-19.872-9.936c-3.117-6.867-3.337-14.928-0.657-24.183
			c1.217-4.53,3.153-9.011,5.808-13.443c2.654-4.432,5.772-8.39,9.351-11.872c3.58-3.482,7.562-6.27,11.945-8.366
			c4.384-2.093,8.937-3.092,13.662-2.995c4.87,0,9.253,1.802,13.151,5.406c3.799,3.361,5.235,10.131,4.311,20.311L77.939,3.041
			H91.09L62.524,46.439c-0.391,1.218-0.511,2.728-0.365,4.53c0.146,1.802,0.523,3.495,1.133,5.078
			c0.608,1.583,1.363,2.948,2.264,4.091c0.9,1.145,1.887,1.717,2.959,1.717c1.412,0,3.007-0.888,4.786-2.667
			c1.777-1.777,3.518-4.517,5.223-8.219L81.519,50.968L81.519,50.968z M55.071,37.964c1.608-7.598,1.608-14.539,0-20.822
			c-1.51-6.38-5.456-9.571-11.836-9.571c-8.767,0-16.56,9.669-23.379,29.005c-1.169,4.384-1.925,8.378-2.265,11.981
			c-0.342,3.605-0.268,6.698,0.219,9.279c0.486,2.582,1.449,4.603,2.886,6.064c1.436,1.462,3.372,2.192,5.808,2.192
			c2.484,0.195,5.272-0.705,8.365-2.703c3.092-1.997,6.028-4.468,8.804-7.415c2.776-2.946,5.211-6.064,7.306-9.351
			C53.074,43.333,54.437,40.447,55.071,37.964z"/>
	</g>
	<g enable-background="new    ">
		<path fill="none" stroke="#FFFFFF" stroke-width="0.216" stroke-miterlimit="5" d="M81.519,50.968
			c-1.803,6.283-3.921,11.373-6.356,15.27c-2.436,3.897-5.65,5.845-9.644,5.845c-1.706,0-3.057-0.524-4.055-1.571
			c-0.999-1.047-1.79-2.422-2.374-4.128c-0.584-1.705-1.109-3.628-1.571-5.772c-0.463-2.143-0.938-4.358-1.425-6.648
			c-0.975,1.364-2.363,3.021-4.164,4.968c-1.803,1.948-4.043,4.067-6.722,6.356c-5.406,4.53-12.201,6.795-20.384,6.795
			c-10.18,0-16.804-3.312-19.872-9.936c-3.117-6.867-3.337-14.928-0.657-24.183c1.217-4.53,3.153-9.011,5.808-13.443
			c2.654-4.432,5.772-8.39,9.351-11.872c3.58-3.482,7.562-6.27,11.945-8.366c4.384-2.093,8.937-3.092,13.662-2.995
			c4.87,0,9.253,1.802,13.151,5.406c3.799,3.361,5.235,10.131,4.311,20.311L77.939,3.041H91.09L62.524,46.439
			c-0.391,1.218-0.511,2.728-0.365,4.53c0.146,1.802,0.523,3.495,1.133,5.078c0.608,1.583,1.363,2.948,2.264,4.091
			c0.9,1.145,1.887,1.717,2.959,1.717c1.412,0,3.007-0.888,4.786-2.667c1.777-1.777,3.518-4.517,5.223-8.219L81.519,50.968
			L81.519,50.968z M55.071,37.964c1.608-7.598,1.608-14.539,0-20.822c-1.51-6.38-5.456-9.571-11.836-9.571
			c-8.767,0-16.56,9.669-23.379,29.005c-1.169,4.384-1.925,8.378-2.265,11.981c-0.342,3.605-0.268,6.698,0.219,9.279
			c0.486,2.582,1.449,4.603,2.886,6.064c1.436,1.462,3.372,2.192,5.808,2.192c2.484,0.195,5.272-0.705,8.365-2.703
			c3.092-1.997,6.028-4.468,8.804-7.415c2.776-2.946,5.211-6.064,7.306-9.351C53.074,43.333,54.437,40.447,55.071,37.964z"/>
	</g>
	<g enable-background="new    ">
		<path fill="#414042" d="M105.699,64.893c-0.075-1.407-0.165-3.113-0.165-4.356h-0.03c-0.359,1.168-0.763,2.44-1.272,3.832
			l-1.781,4.895h-0.988l-1.646-4.805c-0.479-1.437-0.868-2.724-1.153-3.922h-0.03c-0.03,1.257-0.105,2.934-0.195,4.461l-0.269,4.326
			h-1.243l0.703-10.089h1.662l1.722,4.88c0.419,1.243,0.748,2.35,1.017,3.398h0.03c0.269-1.017,0.629-2.125,1.078-3.398l1.797-4.88
			h1.662l0.628,10.089h-1.288L105.699,64.893z"/>
		<path fill="#414042" d="M110.01,65.941c0.03,1.781,1.153,2.515,2.485,2.515c0.943,0,1.527-0.165,2.006-0.374l0.24,0.943
			c-0.464,0.209-1.273,0.464-2.425,0.464c-2.231,0-3.563-1.482-3.563-3.667c0-2.186,1.288-3.892,3.398-3.892
			c2.38,0,2.994,2.066,2.994,3.398c0,0.269-0.015,0.464-0.045,0.614H110.01z M113.872,64.998c0.015-0.823-0.345-2.125-1.826-2.125
			c-1.348,0-1.916,1.213-2.021,2.125H113.872z M114.171,58.951l-1.826,2.141h-0.927l1.317-2.141H114.171z"/>
		<path fill="#414042" d="M123.018,58.696v8.757c0,0.644,0.03,1.377,0.06,1.871h-1.167l-0.06-1.257h-0.045
			c-0.389,0.808-1.257,1.422-2.44,1.422c-1.751,0-3.113-1.482-3.113-3.683c-0.015-2.41,1.497-3.877,3.248-3.877
			c1.123,0,1.856,0.524,2.185,1.093h0.03v-4.326H123.018z M121.716,65.028c0-0.164-0.015-0.389-0.06-0.554
			c-0.195-0.823-0.914-1.512-1.901-1.512c-1.363,0-2.171,1.197-2.171,2.784c0,1.467,0.734,2.679,2.141,2.679
			c0.883,0,1.691-0.599,1.931-1.572c0.045-0.18,0.06-0.359,0.06-0.569L121.716,65.028L121.716,65.028z"/>
		<path fill="#414042" d="M126.687,60.044c0,0.449-0.314,0.808-0.838,0.808c-0.479,0-0.793-0.359-0.793-0.808
			c0-0.449,0.329-0.823,0.823-0.823C126.357,59.22,126.687,59.579,126.687,60.044z M125.219,69.324V62.08h1.317v7.245H125.219z"/>
		<path fill="#414042" d="M133.887,69.07c-0.345,0.165-1.108,0.419-2.081,0.419c-2.185,0-3.607-1.482-3.607-3.697
			c0-2.23,1.527-3.862,3.892-3.862c0.779,0,1.467,0.195,1.826,0.389l-0.299,1.003c-0.315-0.165-0.809-0.345-1.527-0.345
			c-1.662,0-2.559,1.243-2.559,2.739c0,1.677,1.077,2.709,2.515,2.709c0.748,0,1.242-0.18,1.616-0.345L133.887,69.07z"/>
		<path fill="#414042" d="M141.895,65.642c0,2.68-1.871,3.847-3.607,3.847c-1.946,0-3.473-1.437-3.473-3.727
			c0-2.41,1.602-3.832,3.592-3.832C140.488,61.929,141.895,63.442,141.895,65.642z M136.162,65.716c0,1.587,0.899,2.784,2.185,2.784
			c1.257,0,2.201-1.182,2.201-2.814c0-1.227-0.614-2.769-2.171-2.769C136.836,62.917,136.162,64.354,136.162,65.716z"/>
		<path fill="#414042" d="M148.078,59.235v4.221h4.88v-4.221h1.317v10.089h-1.317v-4.73h-4.88v4.73h-1.317V59.235H148.078z"/>
		<path fill="#414042" d="M163.047,65.642c0,2.68-1.871,3.847-3.607,3.847c-1.946,0-3.473-1.437-3.473-3.727
			c0-2.41,1.602-3.832,3.592-3.832C161.641,61.929,163.047,63.442,163.047,65.642z M157.315,65.716c0,1.587,0.899,2.784,2.185,2.784
			c1.257,0,2.201-1.182,2.201-2.814c0-1.227-0.614-2.769-2.171-2.769C157.988,62.917,157.315,64.354,157.315,65.716z"/>
		<path fill="#414042" d="M164.53,67.992c0.405,0.24,1.093,0.509,1.751,0.509c0.943,0,1.392-0.464,1.392-1.078
			c0-0.628-0.374-0.958-1.332-1.317c-1.317-0.479-1.931-1.182-1.931-2.051c0-1.168,0.958-2.125,2.5-2.125
			c0.733,0,1.376,0.195,1.766,0.449l-0.315,0.958c-0.284-0.18-0.808-0.434-1.482-0.434c-0.779,0-1.198,0.449-1.198,0.988
			c0,0.599,0.419,0.868,1.363,1.243c1.242,0.464,1.901,1.093,1.901,2.171c0,1.287-1.003,2.185-2.695,2.185
			c-0.793,0-1.527-0.209-2.035-0.509L164.53,67.992z"/>
		<path fill="#414042" d="M170.637,64.444c0-0.928-0.029-1.677-0.059-2.365h1.167l0.075,1.242h0.029
			c0.524-0.883,1.392-1.392,2.575-1.392c1.766,0,3.083,1.482,3.083,3.667c0,2.605-1.601,3.892-3.308,3.892
			c-0.958,0-1.796-0.419-2.23-1.137h-0.03v3.937h-1.302L170.637,64.444L170.637,64.444z M171.94,66.375
			c0,0.195,0.015,0.374,0.06,0.539c0.24,0.913,1.033,1.542,1.976,1.542c1.392,0,2.2-1.137,2.2-2.799c0-1.437-0.763-2.68-2.156-2.68
			c-0.898,0-1.751,0.629-1.991,1.617c-0.045,0.165-0.09,0.36-0.09,0.524L171.94,66.375L171.94,66.375z"/>
		<path fill="#414042" d="M180.623,60.044c0,0.449-0.315,0.808-0.839,0.808c-0.479,0-0.793-0.359-0.793-0.808
			c0-0.449,0.329-0.823,0.823-0.823C180.293,59.22,180.623,59.579,180.623,60.044z M179.155,69.324V62.08h1.317v7.245H179.155z"/>
		<path fill="#414042" d="M184.246,60.343v1.736h1.886v1.003h-1.886v3.906c0,0.899,0.254,1.408,0.988,1.408
			c0.359,0,0.568-0.03,0.763-0.09l0.059,1.003c-0.254,0.09-0.658,0.18-1.167,0.18c-0.614,0-1.108-0.209-1.422-0.554
			c-0.36-0.404-0.509-1.048-0.509-1.901v-3.951h-1.123V62.08h1.123v-1.347L184.246,60.343z"/>
		<path fill="#414042" d="M192.703,67.588c0,0.629,0.029,1.243,0.105,1.736h-1.183l-0.105-0.913h-0.045
			c-0.405,0.569-1.183,1.078-2.216,1.078c-1.467,0-2.215-1.033-2.215-2.081c0-1.751,1.557-2.709,4.356-2.695v-0.149
			c0-0.584-0.165-1.677-1.647-1.662c-0.689,0-1.392,0.194-1.901,0.539l-0.299-0.883c0.598-0.374,1.482-0.629,2.395-0.629
			c2.216,0,2.754,1.512,2.754,2.949L192.703,67.588L192.703,67.588z M191.43,65.627c-1.436-0.03-3.069,0.225-3.069,1.632
			c0,0.868,0.568,1.257,1.227,1.257c0.958,0,1.572-0.599,1.781-1.212c0.046-0.15,0.06-0.3,0.06-0.419V65.627z"/>
		<path fill="#414042" d="M194.828,58.696h1.317v10.628h-1.317V58.696z"/>
		<path fill="#414042" d="M203.451,67.588c0,0.629,0.029,1.243,0.105,1.736h-1.183l-0.105-0.913h-0.045
			c-0.405,0.569-1.183,1.078-2.216,1.078c-1.467,0-2.215-1.033-2.215-2.081c0-1.751,1.557-2.709,4.356-2.695v-0.149
			c0-0.584-0.165-1.677-1.647-1.662c-0.689,0-1.392,0.194-1.901,0.539l-0.299-0.883c0.598-0.374,1.482-0.629,2.395-0.629
			c2.216,0,2.754,1.512,2.754,2.949L203.451,67.588L203.451,67.588z M202.179,65.627c-1.436-0.03-3.069,0.225-3.069,1.632
			c0,0.868,0.568,1.257,1.227,1.257c0.958,0,1.572-0.599,1.781-1.212c0.046-0.15,0.06-0.3,0.06-0.419V65.627z"/>
		<path fill="#414042" d="M205.576,64.34c0-0.854-0.015-1.587-0.059-2.261h1.153l0.06,1.437h0.045
			c0.329-0.973,1.137-1.587,2.021-1.587c0.135,0,0.24,0.015,0.359,0.03v1.242c-0.134-0.029-0.269-0.029-0.449-0.029
			c-0.927,0-1.587,0.689-1.766,1.676c-0.029,0.18-0.045,0.404-0.045,0.614v3.862h-1.317L205.576,64.34L205.576,64.34z"/>
	</g>
	<g display="none">
		<text transform="matrix(1 0 0 1 92.2856 53.6074)" display="inline" fill="#A7A9AC" font-family="'ArialMT'" font-size="80.6075">alfa</text>
		
			<text transform="matrix(1 0 0 1 92.2856 53.6074)" display="inline" fill="none" stroke="#A7A9AC" stroke-width="0.216" stroke-miterlimit="5" font-family="'ArialMT'" font-size="80.6075">alfa</text>
		<g display="inline" enable-background="new    ">
			<path d="M126.556,43.603c0,3.386,0.162,6.69,0.564,9.35h-6.368l-0.564-4.917h-0.242c-2.176,3.063-6.368,5.804-11.93,5.804
				c-7.9,0-11.93-5.562-11.93-11.205c0-9.431,8.384-14.59,23.457-14.509V27.32c0-3.143-0.887-9.028-8.867-8.947
				c-3.708,0-7.496,1.048-10.237,2.902l-1.612-4.756c3.224-2.015,7.98-3.386,12.897-3.386c11.93,0,14.832,8.141,14.832,15.88
				L126.556,43.603L126.556,43.603z M119.704,33.044c-7.738-0.162-16.525,1.209-16.525,8.786c0,4.675,3.063,6.771,6.61,6.771
				c5.159,0,8.464-3.225,9.592-6.529c0.242-0.806,0.323-1.612,0.323-2.257V33.044z"/>
			<path d="M138.002-4.278h7.093v57.232h-7.093V-4.278z"/>
			<path d="M157.75,52.954V19.34h-5.401v-5.401h5.401v-1.854c0-5.481,1.29-10.479,4.514-13.623c2.66-2.58,6.206-3.627,9.511-3.627
				c2.58,0,4.675,0.564,6.045,1.128l-0.967,5.481c-1.048-0.484-2.418-0.887-4.513-0.887c-6.046,0-7.577,5.24-7.577,11.285v2.096
				h9.431v5.401h-9.431v33.614L157.75,52.954L157.75,52.954z"/>
			<path d="M207.968,43.603c0,3.386,0.161,6.69,0.563,9.35h-6.368l-0.564-4.917h-0.242c-2.177,3.063-6.368,5.804-11.93,5.804
				c-7.899,0-11.93-5.562-11.93-11.205c0-9.431,8.383-14.59,23.457-14.509V27.32c0-3.143-0.887-9.028-8.866-8.947
				c-3.708,0-7.496,1.048-10.237,2.902l-1.612-4.756c3.225-2.015,7.981-3.386,12.898-3.386c11.93,0,14.832,8.141,14.832,15.88
				L207.968,43.603L207.968,43.603z M201.116,33.044c-7.738-0.162-16.524,1.209-16.524,8.786c0,4.675,3.063,6.771,6.61,6.771
				c5.159,0,8.464-3.225,9.592-6.529c0.242-0.806,0.322-1.612,0.322-2.257L201.116,33.044L201.116,33.044z"/>
		</g>
		<g display="inline" enable-background="new    ">
			<path fill="none" stroke="#FFFFFF" stroke-width="0.216" stroke-miterlimit="5" d="M126.556,43.603
				c0,3.386,0.162,6.69,0.564,9.35h-6.368l-0.564-4.917h-0.242c-2.176,3.063-6.368,5.804-11.93,5.804
				c-7.9,0-11.93-5.562-11.93-11.205c0-9.431,8.384-14.59,23.457-14.509V27.32c0-3.143-0.887-9.028-8.867-8.947
				c-3.708,0-7.496,1.048-10.237,2.902l-1.612-4.756c3.224-2.015,7.98-3.386,12.897-3.386c11.93,0,14.832,8.141,14.832,15.88
				L126.556,43.603L126.556,43.603z M119.704,33.044c-7.738-0.162-16.525,1.209-16.525,8.786c0,4.675,3.063,6.771,6.61,6.771
				c5.159,0,8.464-3.225,9.592-6.529c0.242-0.806,0.323-1.612,0.323-2.257V33.044z"/>
			<path fill="none" stroke="#FFFFFF" stroke-width="0.216" stroke-miterlimit="5" d="M138.002-4.278h7.093v57.232h-7.093V-4.278z"
				/>
			<path fill="none" stroke="#FFFFFF" stroke-width="0.216" stroke-miterlimit="5" d="M157.75,52.954V19.34h-5.401v-5.401h5.401
				v-1.854c0-5.481,1.29-10.479,4.514-13.623c2.66-2.58,6.206-3.627,9.511-3.627c2.58,0,4.675,0.564,6.045,1.128l-0.967,5.481
				c-1.048-0.484-2.418-0.887-4.513-0.887c-6.046,0-7.577,5.24-7.577,11.285v2.096h9.431v5.401h-9.431v33.614L157.75,52.954
				L157.75,52.954z"/>
			<path fill="none" stroke="#FFFFFF" stroke-width="0.216" stroke-miterlimit="5" d="M207.968,43.603
				c0,3.386,0.161,6.69,0.563,9.35h-6.368l-0.564-4.917h-0.242c-2.177,3.063-6.368,5.804-11.93,5.804
				c-7.899,0-11.93-5.562-11.93-11.205c0-9.431,8.383-14.59,23.457-14.509V27.32c0-3.143-0.887-9.028-8.866-8.947
				c-3.708,0-7.496,1.048-10.237,2.902l-1.612-4.756c3.225-2.015,7.981-3.386,12.898-3.386c11.93,0,14.832,8.141,14.832,15.88
				L207.968,43.603L207.968,43.603z M201.116,33.044c-7.738-0.162-16.524,1.209-16.524,8.786c0,4.675,3.063,6.771,6.61,6.771
				c5.159,0,8.464-3.225,9.592-6.529c0.242-0.806,0.322-1.612,0.322-2.257L201.116,33.044L201.116,33.044z"/>
		</g>
	</g>
	<g>
		<polygon fill="#939598" stroke="#FFFFFF" stroke-width="0.5669" stroke-miterlimit="22.9256" points="0.327,75.041 
			206.159,80.284 206.159,75.041 		"/>
		<polygon fill="#00A651" stroke="#FFFFFF" stroke-width="0.5669" stroke-miterlimit="22.9256" points="0,74.715 206.177,78.233 
			206.177,74.715 		"/>
	</g>
</g>
</svg>
